# xmcd
#
# Track frame offsets: 
#        150
#        5489
#        11057
#        17483
#        29931
#        55272
#        62406
#        70626
#        89121
#        104286
#        117150
#        148946
#        165810
#        179598
#        193296
#        207123
#        221598
#        232803
#        247130
#        261320
#        276739
#        290334
#        303818
#        317917
#        331867
#
# Disc length: 4599 seconds
#
# Revision: 0
# Processed by: cddbd v1.5.2PL0 Copyright (c) Steve Scherf et al.
# Submitted via: ExactAudioCopy v0.99pb3
#
DISCID=7811f519
DTITLE=Various Artist - Lifting the Veil
DYEAR=2008
DGENRE=Blues
TTITLE0=Lead Belly - Sermon on Pancakes
TTITLE1=Lead Belly - The Blood's Done Signed Your Name
TTITLE2=Rev. Gary Davis - Come Down to See Me Sometime
TTITLE3=Rev Gary Davis - Lost John
TTITLE4=Rev Gary Davis - Soldier's Drill
TTITLE5=Lead Belly - Gallows Pole
TTITLE6=Lead Belly -  Leavin' Blues
TTITLE7=Rev Gary Davis - Slow Blues in E
TTITLE8=Bill Bill Broonzy - Starvation Blues
TTITLE9=Blind Blake, Leola B Wilson - Black Biting Bee Blues
TTITLE10=Rev Gary Davis - Mountain Jack
TTITLE11=Rev Gary Davis - I Didn't Want To Join the Band
TTITLE12=Buddy Boy Hawkins - A Rag
TTITLE13=William Moore - Raggin' the Blues
TTITLE14=William Moore - Old Country Rock
TTITLE15=Blind Blake, Gus Cannon - Poor Boy
TTITLE16=Ramblin' Thomas - Poor Boy
TTITLE17=Charlie Patton - Mississippi Bo Weevil Blues
TTITLE18=Charlie Patton - Screamin' and Hollerin' the Blues
TTITLE19=Rube Lacy - Mississippi Jail House Groan
TTITLE20=Rube Lacy - Ham Hound Crave
TTITLE21=Edward Thompson - Seven Sisters Blues
TTITLE22=Ramblin' Thomas - Hard Dallas Blues
TTITLE23=Ramblin' Thomas - Back Gnawin' Blues
TTITLE24=Ramblin' Thomas - Going Crazy
EXTD=
EXTT0=
EXTT1=
EXTT2=
EXTT3=
EXTT4=
EXTT5=
EXTT6=
EXTT7=
EXTT8=
EXTT9=
EXTT10=
EXTT11=
EXTT12=
EXTT13=
EXTT14=
EXTT15=
EXTT16=
EXTT17=
EXTT18=
EXTT19=
EXTT20=
EXTT21=
EXTT22=
EXTT23=
EXTT24=
PLAYORDER=
